<svg width="334" height="257" viewBox="0 0 334 257" fill="none" xmlns="http://www.w3.org/2000/svg">
<path fill-rule="evenodd" clip-rule="evenodd" d="M177.664 239.551C151.961 235.627 131.716 221.228 111.128 207.946C88.9247 193.622 59.7221 181.314 53.7595 159.617C47.8025 137.94 70.2256 120.032 81.6016 100.502C92.7987 81.2792 96.3805 57.0121 119.649 46.5015C143.077 35.9187 173.413 41.4931 200.637 46.7315C225.657 51.5459 248.841 60.8408 267.787 75.0067C286.569 89.05 298.61 106.857 306.621 125.975C315.456 147.057 326.005 169.937 315.908 189.838C305.696 209.967 279.009 220.752 253.967 229.757C230.23 238.293 204.1 243.588 177.664 239.551Z" fill="white" fill-opacity="0.35"/>
<path opacity="0.3" fill-rule="evenodd" clip-rule="evenodd" d="M139.944 235.466C111.105 231.063 88.3895 214.907 65.2898 200.005C40.377 183.933 7.61112 170.123 0.920913 145.778C-5.76295 121.456 19.3962 101.363 32.1603 79.4499C44.7237 57.8817 48.7425 30.6534 74.85 18.8603C101.137 6.98614 135.175 13.2407 165.721 19.1184C193.794 24.5203 219.806 34.9493 241.064 50.8438C262.138 66.6006 275.648 86.5801 284.637 108.031C294.55 131.686 306.387 157.358 295.058 179.687C283.599 202.272 253.656 214.373 225.558 224.477C198.924 234.054 169.606 239.996 139.944 235.466Z" fill="url(#paint0_linear_301_509)"/>
<path d="M161.642 110.575V95.2708L153.899 87.9831L149.105 85.4324L143.205 114.948H158.324L161.642 110.575Z" fill="#FFAC71" stroke="black"/>
<mask id="path-4-inside-1_301_509" fill="white">
<path d="M124.733 194.9C122.819 195.264 120.843 195.136 118.994 194.527C117.145 193.918 115.487 192.848 114.178 191.422C110.854 187.716 110.444 182.353 110.198 177.407L109.469 162.779L114.852 167.74C118.724 171.308 122.679 174.984 125.026 179.673C127.374 184.362 127.805 190.356 124.714 194.604"/>
</mask>
<path d="M124.733 194.9C122.819 195.264 120.843 195.136 118.994 194.527C117.145 193.918 115.487 192.848 114.178 191.422C110.854 187.716 110.444 182.353 110.198 177.407L109.469 162.779L114.852 167.74C118.724 171.308 122.679 174.984 125.026 179.673C127.374 184.362 127.805 190.356 124.714 194.604" fill="#E6E6E6"/>
<path d="M114.178 191.422L113.439 192.099L113.431 192.09L114.178 191.422ZM110.198 177.407L109.198 177.46L110.198 177.407ZM109.469 162.779L108.469 162.832L108.347 160.383L110.148 162.043L109.469 162.779ZM114.852 167.74L115.532 167.004L115.532 167.004L114.852 167.74ZM124.917 195.881C122.836 196.278 120.688 196.139 118.678 195.476L119.31 193.578C120.998 194.134 122.802 194.251 124.548 193.918L124.917 195.881ZM118.678 195.476C116.668 194.814 114.864 193.651 113.439 192.099L114.916 190.745C116.11 192.046 117.623 193.022 119.31 193.578L118.678 195.476ZM113.431 192.09C109.836 188.081 109.442 182.344 109.198 177.46L111.197 177.354C111.446 182.362 111.873 187.351 114.924 190.754L113.431 192.09ZM109.198 177.46L108.469 162.832L110.468 162.726L111.197 177.354L109.198 177.46ZM110.148 162.043L115.532 167.004L114.173 168.476L108.789 163.514L110.148 162.043ZM115.532 167.004C119.381 170.551 123.479 174.345 125.921 179.224L124.131 180.123C121.879 175.623 118.068 172.065 114.173 168.476L115.532 167.004ZM125.921 179.224C128.369 184.114 128.909 190.536 125.523 195.19L123.906 194.018C126.7 190.177 126.378 184.611 124.131 180.123L125.921 179.224Z" fill="#222132" mask="url(#path-4-inside-1_301_509)"/>
<mask id="path-6-inside-2_301_509" fill="white">
<path d="M121.634 212.027C122.898 207.746 124.188 203.412 124.426 198.934C124.637 194.956 124.002 190.947 122.009 187.444C120.951 185.588 119.573 183.929 117.937 182.541C117.511 182.178 116.967 182.851 117.392 183.212C120.221 185.62 122.202 188.854 123.052 192.447C123.986 196.441 123.609 200.59 122.747 204.561C122.226 206.962 121.533 209.322 120.837 211.678C120.795 211.783 120.794 211.9 120.835 212.006C120.876 212.111 120.957 212.197 121.06 212.246C121.165 212.292 121.285 212.294 121.393 212.253C121.5 212.212 121.587 212.131 121.634 212.027Z"/>
</mask>
<path d="M121.634 212.027C122.898 207.746 124.188 203.412 124.426 198.934C124.637 194.956 124.002 190.947 122.009 187.444C120.951 185.588 119.573 183.929 117.937 182.541C117.511 182.178 116.967 182.851 117.392 183.212C120.221 185.62 122.202 188.854 123.052 192.447C123.986 196.441 123.609 200.59 122.747 204.561C122.226 206.962 121.533 209.322 120.837 211.678C120.795 211.783 120.794 211.9 120.835 212.006C120.876 212.111 120.957 212.197 121.06 212.246C121.165 212.292 121.285 212.294 121.393 212.253C121.5 212.212 121.587 212.131 121.634 212.027Z" fill="#F2F2F2"/>
<path d="M124.426 198.934L125.425 198.983L125.425 198.983L124.426 198.934ZM122.009 187.444L122.879 186.948L122.879 186.948L122.009 187.444ZM117.937 182.541L117.288 183.303L117.287 183.303L117.937 182.541ZM117.392 183.212L118.042 182.45L118.042 182.451L117.392 183.212ZM123.052 192.447L124.025 192.214L124.026 192.217L123.052 192.447ZM122.747 204.561L121.77 204.352L122.747 204.561ZM120.837 211.678L121.797 211.958L121.783 212.006L121.764 212.052L120.837 211.678ZM121.06 212.246L120.661 213.164L120.643 213.157L120.625 213.148L121.06 212.246ZM120.675 211.747C121.945 207.445 123.196 203.225 123.427 198.884L125.425 198.983C125.179 203.6 123.851 208.048 122.594 212.306L120.675 211.747ZM123.427 198.884C123.631 195.042 123.013 191.235 121.139 187.941L122.879 186.948C124.99 190.659 125.643 194.87 125.425 198.983L123.427 198.884ZM121.139 187.941C120.139 186.186 118.835 184.617 117.288 183.303L118.587 181.778C120.31 183.241 121.763 184.99 122.879 186.948L121.139 187.941ZM117.287 183.303C117.395 183.394 117.577 183.461 117.778 183.427C117.95 183.398 118.062 183.308 118.122 183.232C118.184 183.156 118.241 183.038 118.238 182.882C118.235 182.7 118.15 182.542 118.042 182.45L116.742 183.974C116.421 183.702 116.245 183.324 116.238 182.926C116.231 182.554 116.371 182.222 116.569 181.978C116.766 181.735 117.067 181.522 117.447 181.457C117.857 181.387 118.267 181.506 118.587 181.779L117.287 183.303ZM118.042 182.451C121.031 184.995 123.127 188.414 124.025 192.214L122.078 192.68C121.278 189.295 119.41 186.246 116.741 183.974L118.042 182.451ZM124.026 192.217C125.008 196.414 124.602 200.728 123.725 204.77L121.77 204.352C122.615 200.453 122.964 196.469 122.077 192.677L124.026 192.217ZM123.725 204.77C123.195 207.212 122.491 209.607 121.797 211.958L119.878 211.398C120.575 209.037 121.258 206.712 121.77 204.352L123.725 204.77ZM121.764 212.052C121.818 211.919 121.819 211.771 121.767 211.639L119.903 212.372C119.769 212.029 119.771 211.647 119.911 211.304L121.764 212.052ZM121.767 211.639C121.716 211.507 121.617 211.403 121.494 211.344L120.625 213.148C120.296 212.991 120.037 212.715 119.903 212.372L121.767 211.639ZM121.458 211.328C121.325 211.271 121.175 211.268 121.038 211.32L121.747 213.187C121.395 213.321 121.006 213.313 120.661 213.164L121.458 211.328ZM121.038 211.32C120.901 211.372 120.787 211.477 120.724 211.616L122.545 212.437C122.388 212.784 122.1 213.052 121.747 213.187L121.038 211.32Z" fill="#222132" mask="url(#path-6-inside-2_301_509)"/>
<mask id="path-8-inside-3_301_509" fill="white">
<path d="M116.95 203.436C115.994 204.493 114.778 205.289 113.421 205.747C112.063 206.205 110.609 206.31 109.199 206.052C105.58 205.346 102.919 202.386 100.543 199.598L93.5145 191.352L98.9065 191.885C102.784 192.268 106.759 192.678 110.25 194.389C113.741 196.101 116.699 199.422 116.805 203.271"/>
</mask>
<path d="M116.95 203.436C115.994 204.493 114.778 205.289 113.421 205.747C112.063 206.205 110.609 206.31 109.199 206.052C105.58 205.346 102.919 202.386 100.543 199.598L93.5145 191.352L98.9065 191.885C102.784 192.268 106.759 192.678 110.25 194.389C113.741 196.101 116.699 199.422 116.805 203.271" fill="#E6E6E6"/>
<path d="M109.199 206.052L109.015 207.035L109.004 207.032L109.199 206.052ZM100.543 199.598L99.7805 200.248L99.7805 200.248L100.543 199.598ZM93.5145 191.352L92.7519 192.002L91.1421 190.113L93.6162 190.358L93.5145 191.352ZM98.9065 191.885L98.8048 192.88L98.8048 192.88L98.9065 191.885ZM117.691 204.105C116.619 205.29 115.258 206.181 113.738 206.694L113.103 204.8C114.299 204.397 115.368 203.696 116.208 202.767L117.691 204.105ZM113.738 206.694C112.219 207.207 110.592 207.324 109.015 207.035L109.382 205.068C110.626 205.296 111.908 205.204 113.103 204.8L113.738 206.694ZM109.004 207.032C104.99 206.25 102.117 202.989 99.7805 200.248L101.306 198.949C103.722 201.783 106.17 204.442 109.393 205.071L109.004 207.032ZM99.7805 200.248L92.7519 192.002L94.2772 190.703L101.306 198.949L99.7805 200.248ZM93.6162 190.358L99.0083 190.89L98.8048 192.88L93.4128 192.347L93.6162 190.358ZM99.0082 190.89C102.855 191.27 107.014 191.688 110.693 193.492L109.807 195.287C106.504 193.668 102.713 193.266 98.8048 192.88L99.0082 190.89ZM110.693 193.492C114.381 195.3 117.685 198.89 117.806 203.24L115.805 203.302C115.712 199.953 113.101 196.902 109.807 195.287L110.693 193.492Z" fill="#222132" mask="url(#path-8-inside-3_301_509)"/>
<mask id="path-10-inside-4_301_509" fill="white">
<path d="M122.972 214.79C120.819 209.252 118.283 203.077 112.501 200.374C110.893 199.624 109.154 199.184 107.379 199.079C106.82 199.045 106.831 199.907 107.39 199.941C110.363 200.131 113.179 201.327 115.364 203.329C117.468 205.247 118.961 207.703 120.154 210.251C120.885 211.811 121.509 213.417 122.133 215.021C122.332 215.534 123.174 215.309 122.972 214.79L122.972 214.79Z"/>
</mask>
<path d="M122.972 214.79C120.819 209.252 118.283 203.077 112.501 200.374C110.893 199.624 109.154 199.184 107.379 199.079C106.82 199.045 106.831 199.907 107.39 199.941C110.363 200.131 113.179 201.327 115.364 203.329C117.468 205.247 118.961 207.703 120.154 210.251C120.885 211.811 121.509 213.417 122.133 215.021C122.332 215.534 123.174 215.309 122.972 214.79L122.972 214.79Z" fill="#F2F2F2"/>
<path d="M122.972 214.79L123.962 214.935L123.402 218.658L122.04 215.155L122.972 214.79ZM112.501 200.374L112.926 199.468L112.927 199.468L112.501 200.374ZM107.379 199.079L107.317 200.077L107.315 200.077L107.379 199.079ZM107.39 199.941L107.454 198.943L107.457 198.943L107.39 199.941ZM115.364 203.329L114.688 204.069L114.686 204.067L115.364 203.329ZM120.154 210.251L121.061 209.824L121.061 209.824L120.154 210.251ZM122.133 215.021L123.065 214.657L123.065 214.657L122.133 215.021ZM122.972 214.79L121.983 214.645L122.542 210.922L123.905 214.425L122.972 214.79ZM122.04 215.155C119.858 209.546 117.439 203.787 112.074 201.279L112.927 199.468C119.128 202.367 121.779 208.958 123.905 214.425L122.04 215.155ZM112.075 201.279C110.581 200.583 108.966 200.175 107.317 200.077L107.442 198.082C109.342 198.194 111.204 198.664 112.926 199.468L112.075 201.279ZM107.315 200.077C107.456 200.086 107.658 200.031 107.81 199.862C107.939 199.718 107.967 199.564 107.966 199.469C107.965 199.37 107.933 199.253 107.844 199.146C107.741 199.022 107.592 198.951 107.454 198.943L107.326 200.938C106.408 200.883 105.973 200.113 105.965 199.501C105.961 199.189 106.056 198.825 106.323 198.528C106.613 198.206 107.023 198.056 107.443 198.082L107.315 200.077ZM107.457 198.943C110.657 199.148 113.688 200.436 116.041 202.592L114.686 204.067C112.67 202.219 110.069 201.114 107.323 200.938L107.457 198.943ZM116.04 202.59C118.28 204.632 119.84 207.219 121.061 209.824L119.248 210.677C118.082 208.187 116.656 205.862 114.688 204.069L116.04 202.59ZM121.061 209.824C121.808 211.42 122.444 213.058 123.065 214.657L121.2 215.386C120.574 213.776 119.962 212.201 119.248 210.677L121.061 209.824ZM123.065 214.657C123.013 214.521 122.898 214.407 122.761 214.351C122.643 214.302 122.532 214.304 122.443 214.328C122.358 214.351 122.213 214.418 122.106 214.59C121.977 214.796 121.987 215.018 122.04 215.155L123.905 214.425C124.059 214.821 124.038 215.266 123.803 215.644C123.588 215.988 123.258 216.177 122.962 216.257C122.393 216.412 121.531 216.236 121.2 215.386L123.065 214.657ZM123.962 214.935L123.962 214.935L121.983 214.645L121.983 214.645L123.962 214.935Z" fill="#222132" mask="url(#path-10-inside-4_301_509)"/>
<mask id="path-12-inside-5_301_509" fill="white">
<path d="M200.375 189.469C203.772 191.241 207.573 192.117 211.413 192.015C215.252 191.913 219 190.835 222.296 188.886C230.711 183.778 234.594 173.898 237.925 164.711C241.21 155.653 244.495 146.595 247.78 137.538L234.751 143.846C225.382 148.382 215.793 153.075 208.648 160.589C201.504 168.103 197.216 179.163 200.582 188.922"/>
</mask>
<path d="M200.375 189.469C203.772 191.241 207.573 192.117 211.413 192.015C215.252 191.913 219 190.835 222.296 188.886C230.711 183.778 234.594 173.898 237.925 164.711C241.21 155.653 244.495 146.595 247.78 137.538L234.751 143.846C225.382 148.382 215.793 153.075 208.648 160.589C201.504 168.103 197.216 179.163 200.582 188.922" fill="#E6E6E6"/>
<path d="M222.296 188.886L222.813 189.74L222.804 189.746L222.296 188.886ZM237.925 164.711L236.985 164.374L236.985 164.374L237.925 164.711ZM247.78 137.538L247.346 136.638L249.557 135.568L248.72 137.875L247.78 137.538ZM234.751 143.846L234.317 142.946L234.317 142.946L234.751 143.846ZM200.84 188.583C204.087 190.276 207.72 191.114 211.39 191.016L211.436 193.014C207.427 193.121 203.458 192.205 199.91 190.356L200.84 188.583ZM211.39 191.016C215.059 190.918 218.64 189.888 221.788 188.027L222.804 189.746C219.36 191.782 215.445 192.908 211.436 193.014L211.39 191.016ZM221.778 188.033C229.844 183.137 233.632 173.619 236.985 164.374L238.866 165.049C235.555 174.178 231.578 184.42 222.813 189.74L221.778 188.033ZM236.985 164.374C240.27 155.316 243.554 146.258 246.839 137.2L248.72 137.875C245.436 146.933 242.151 155.991 238.866 165.049L236.985 164.374ZM248.214 138.437L235.185 144.745L234.317 142.946L247.346 136.638L248.214 138.437ZM235.185 144.745C225.787 149.295 216.371 153.917 209.373 161.277L207.924 159.902C215.215 152.234 224.976 147.469 234.317 142.946L235.185 144.745ZM209.373 161.277C202.383 168.627 198.325 179.309 201.528 188.594L199.636 189.251C196.106 179.017 200.624 167.579 207.924 159.902L209.373 161.277Z" fill="#222132" mask="url(#path-12-inside-5_301_509)"/>
<path d="M220.553 170.467L220.553 170.467C216.717 172.136 213.206 174.453 210.176 177.315C204.475 182.709 200.992 189.815 199.102 197.369C196.987 205.817 196.89 214.588 196.792 223.319L196.791 223.481C196.808 223.562 196.853 223.636 196.921 223.689C196.995 223.745 197.088 223.773 197.181 223.764C197.276 223.747 197.36 223.697 197.418 223.624L197.81 223.933L197.418 223.624C197.477 223.548 197.505 223.454 197.497 223.36L197.495 223.335L197.495 223.31C197.549 218.476 197.609 213.615 198.02 208.771C198.701 200.759 200.406 192.639 204.535 185.545L204.535 185.544C208.274 179.157 213.967 174.109 220.795 171.127L220.795 171.127C220.918 171.073 220.966 171.001 220.987 170.936C221.012 170.859 221.01 170.756 220.969 170.654C220.928 170.552 220.861 170.485 220.8 170.455C220.752 170.431 220.677 170.413 220.553 170.467Z" fill="#F2F2F2" stroke="#222132"/>
<mask id="path-15-inside-6_301_509" fill="white">
<path d="M210.103 209.973C211.293 212.508 213.124 214.697 215.418 216.329C217.713 217.961 220.394 218.982 223.204 219.293C230.437 220.01 237.17 215.935 243.267 212.023L261.301 200.452L250.824 198.404C243.29 196.932 235.556 195.454 227.981 196.706C220.406 197.958 212.904 202.545 210.471 209.744"/>
</mask>
<path d="M210.103 209.973C211.293 212.508 213.124 214.697 215.418 216.329C217.713 217.961 220.394 218.982 223.204 219.293C230.437 220.01 237.17 215.935 243.267 212.023L261.301 200.452L250.824 198.404C243.29 196.932 235.556 195.454 227.981 196.706C220.406 197.958 212.904 202.545 210.471 209.744" fill="#E6E6E6"/>
<path d="M223.204 219.293L223.102 220.288L223.09 220.286L223.204 219.293ZM243.267 212.023L243.806 212.864L243.806 212.864L243.267 212.023ZM261.301 200.452L261.496 199.471L263.936 199.948L261.84 201.293L261.301 200.452ZM250.824 198.404L250.629 199.385L250.629 199.385L250.824 198.404ZM211.009 209.546C212.126 211.925 213.844 213.98 216 215.514L214.836 217.144C212.403 215.413 210.46 213.091 209.197 210.4L211.009 209.546ZM216 215.514C218.156 217.048 220.676 218.007 223.317 218.3L223.09 220.286C220.112 219.957 217.269 218.875 214.836 217.144L216 215.514ZM223.306 218.298C230.138 218.976 236.579 215.128 242.728 211.183L243.806 212.864C237.76 216.743 230.736 221.045 223.102 220.288L223.306 218.298ZM242.728 211.183L260.763 199.612L261.84 201.293L243.806 212.864L242.728 211.183ZM261.106 201.433L250.629 199.385L251.02 197.423L261.496 199.471L261.106 201.433ZM250.629 199.385C243.065 197.907 235.509 196.475 228.141 197.692L227.821 195.72C235.604 194.434 243.515 195.956 251.02 197.423L250.629 199.385ZM228.141 197.692C220.782 198.908 213.691 203.336 211.419 210.061L209.523 209.427C212.116 201.753 220.029 197.007 227.821 195.72L228.141 197.692Z" fill="#222132" mask="url(#path-15-inside-6_301_509)"/>
<path d="M220.269 206.716C223.736 206.212 227.269 206.368 230.677 207.175C231.751 207.427 231.23 209.045 230.158 208.793M220.269 206.716L220.34 207.21C220.34 207.211 220.34 207.211 220.339 207.211M220.269 206.716L220.339 207.211C220.339 207.211 220.339 207.211 220.339 207.211M220.269 206.716C207.797 208.541 199.436 218.751 192.165 227.974C191.484 228.838 192.941 229.74 193.614 228.886L193.676 228.808C195.762 226.162 197.85 223.513 200.11 221.009C203.838 216.881 208.077 213.095 213.156 210.669M220.339 207.211C223.744 206.716 227.213 206.869 230.56 207.661L230.561 207.661C230.693 207.692 230.73 207.748 230.746 207.782C230.769 207.831 230.78 207.917 230.746 208.022C230.713 208.126 230.646 208.214 230.568 208.265C230.499 208.31 230.407 208.338 230.274 208.307L230.272 208.306L230.272 208.306C224.445 206.956 218.325 207.631 212.941 210.218M220.339 207.211C208.097 209.002 199.852 219.029 192.557 228.283C192.476 228.386 192.486 228.444 192.493 228.471C192.505 228.517 192.549 228.589 192.648 228.65C192.853 228.778 193.083 228.753 193.221 228.577L193.288 228.493C195.37 225.851 197.467 223.192 199.739 220.675C203.488 216.523 207.779 212.684 212.941 210.218M212.941 210.218C212.941 210.218 212.942 210.218 212.942 210.218L213.156 210.669M212.941 210.218C212.941 210.219 212.941 210.219 212.941 210.219L213.156 210.669M213.156 210.669C218.437 208.131 224.441 207.469 230.158 208.793M230.158 208.793L230.158 208.793L230.158 208.793Z" fill="#F2F2F2" stroke="#222132"/>
<path d="M269.022 67.7918L316.902 49.843L317.525 49.6101C317.842 49.4908 318.186 49.4624 318.518 49.5279C318.851 49.5935 319.158 49.7505 319.404 49.9808C319.65 50.2111 319.826 50.5054 319.91 50.8299C319.995 51.1544 319.985 51.4958 319.882 51.815L306.266 94.1903C306.178 94.4627 306.024 94.7101 305.819 94.9117C305.614 95.1133 305.362 95.2632 305.086 95.3488C304.809 95.4348 304.515 95.4529 304.229 95.4015C303.944 95.35 303.675 95.2306 303.446 95.0536L287.62 82.8706C287.507 82.7814 287.377 82.7163 287.237 82.6793C287.097 82.6423 286.951 82.6343 286.808 82.6558C286.614 82.6822 286.43 82.7604 286.276 82.882C286.123 83.0037 286.006 83.1642 285.938 83.3465L283.925 88.8749C283.798 89.2423 283.551 89.5574 283.223 89.77C282.894 89.9826 282.503 90.0804 282.112 90.048L282.098 90.0471C281.703 90.0242 281.328 89.8708 281.032 89.6117C280.736 89.3526 280.537 89.0027 280.467 88.6184L278.102 76.9053C278.072 76.7591 278.013 76.6204 277.927 76.4978C277.837 76.3773 277.724 76.2752 277.594 76.1973L268.742 70.9863C268.451 70.815 268.215 70.5662 268.06 70.2683C267.906 69.9705 267.84 69.6356 267.869 69.3022C267.898 68.9688 268.022 68.6502 268.226 68.3831C268.43 68.116 268.706 67.9111 269.022 67.7919L269.022 67.7918ZM269.109 70.376L277.961 75.5871C278.076 75.6534 278.183 75.7324 278.28 75.8224L317.153 50.8797C317.187 50.8573 317.223 50.8382 317.261 50.8228C317.416 50.7578 317.589 50.7482 317.75 50.7957C317.911 50.8433 318.05 50.945 318.143 51.0832C318.237 51.2214 318.278 51.3875 318.261 51.5528C318.243 51.718 318.168 51.872 318.047 51.9881L287.544 82.0276C287.732 82.091 287.908 82.186 288.063 82.3083L303.889 94.4912C304.026 94.5966 304.187 94.6678 304.358 94.6986C304.529 94.7294 304.705 94.7189 304.871 94.6681C305.038 94.6172 305.189 94.5275 305.312 94.4065C305.436 94.2856 305.528 94.1369 305.581 93.9732L319.196 51.5979C319.257 51.4066 319.262 51.2023 319.211 51.0083C319.16 50.8143 319.054 50.6384 318.907 50.5007C318.759 50.363 318.576 50.2689 318.377 50.2293C318.178 50.1896 317.972 50.2059 317.782 50.2764L317.145 50.5154L269.28 68.4581C269.09 68.5295 268.924 68.6524 268.802 68.8126C268.679 68.9728 268.604 69.1639 268.586 69.364C268.569 69.5642 268.608 69.7652 268.7 69.9442C268.793 70.1232 268.934 70.2728 269.109 70.376L269.109 70.376Z" fill="#CCCCCC"/>
<path d="M269.023 67.7918L316.903 49.843L317.525 49.6101C317.842 49.4908 318.186 49.4624 318.519 49.5279C318.851 49.5935 319.158 49.7505 319.404 49.9808C319.65 50.2111 319.826 50.5054 319.91 50.8299C319.995 51.1544 319.985 51.4958 319.882 51.815L306.266 94.1903C306.178 94.4627 306.024 94.7101 305.819 94.9117C305.614 95.1133 305.362 95.2632 305.086 95.3488C304.809 95.4348 304.515 95.4529 304.229 95.4015C303.944 95.35 303.675 95.2306 303.446 95.0536L287.62 82.8706C287.507 82.7814 287.377 82.7163 287.237 82.6793C287.097 82.6423 286.951 82.6343 286.808 82.6558C286.614 82.6822 286.43 82.7604 286.277 82.882C286.123 83.0037 286.006 83.1642 285.938 83.3465L283.925 88.8749C283.798 89.2423 283.551 89.5574 283.223 89.77C282.894 89.9826 282.503 90.0804 282.112 90.048L282.098 90.0471C281.703 90.0242 281.328 89.8708 281.032 89.6117C280.736 89.3526 280.537 89.0027 280.467 88.6184L278.102 76.9053C278.072 76.7591 278.013 76.6204 277.927 76.4978C277.837 76.3773 277.724 76.2752 277.594 76.1973L268.742 70.9863C268.451 70.815 268.215 70.5662 268.061 70.2683C267.906 69.9705 267.84 69.6356 267.869 69.3022C267.898 68.9688 268.022 68.6502 268.226 68.3831C268.43 68.116 268.706 67.9111 269.023 67.7919L269.023 67.7918ZM269.109 70.376L277.961 75.5871C278.076 75.6534 278.183 75.7324 278.281 75.8224C278.368 75.9024 278.447 75.9913 278.515 76.0878C278.586 76.1862 278.647 76.2919 278.695 76.403L278.695 76.4065C278.746 76.5222 278.784 76.6431 278.808 76.7671L281.173 88.4802C281.213 88.7114 281.332 88.9223 281.509 89.078C281.687 89.2338 281.913 89.3252 282.15 89.3373L282.157 89.3378C282.392 89.3595 282.628 89.3022 282.826 89.175C283.024 89.0477 283.173 88.8582 283.248 88.6369L285.262 83.1051C285.366 82.8205 285.542 82.5669 285.772 82.3682C286.003 82.1696 286.282 82.0326 286.581 81.9702L286.585 81.9704C286.625 81.9624 286.665 81.9544 286.705 81.9499C286.987 81.9079 287.275 81.9346 287.545 82.0276C287.732 82.091 287.908 82.186 288.063 82.3083L303.889 94.4912C304.026 94.5966 304.187 94.6678 304.358 94.6986C304.529 94.7294 304.705 94.7189 304.872 94.6681C305.038 94.6172 305.189 94.5275 305.312 94.4065C305.436 94.2856 305.528 94.1369 305.581 93.9732L319.196 51.5979C319.257 51.4066 319.262 51.2023 319.211 51.0083C319.16 50.8143 319.054 50.6384 318.907 50.5007C318.76 50.363 318.576 50.2689 318.377 50.2293C318.178 50.1896 317.972 50.2059 317.782 50.2764L317.145 50.5154L269.28 68.4581C269.09 68.5295 268.924 68.6524 268.802 68.8126C268.679 68.9728 268.604 69.1639 268.587 69.364C268.569 69.5642 268.608 69.7652 268.701 69.9442C268.793 70.1232 268.934 70.2728 269.109 70.376L269.109 70.376Z" fill="#3F3D56"/>
<path d="M278.133 75.9157L278.525 76.5126L278.695 76.4063L278.695 76.4027L317.537 51.483L286.585 81.9701L286.581 81.9699L286.5 82.0536L287.006 82.5583L287.544 82.0273L318.047 51.9879C318.168 51.8718 318.243 51.7178 318.261 51.5525C318.278 51.3873 318.237 51.2212 318.143 51.0829C318.05 50.9447 317.911 50.843 317.75 50.7954C317.589 50.7479 317.416 50.7575 317.261 50.8225C317.223 50.838 317.187 50.857 317.153 50.8795L278.28 75.8222L278.133 75.9157Z" fill="#3F3D56"/>
<path d="M143.384 159.101L147.682 142.422L132.136 140.14L128.725 154.496L128.725 154.497L127.643 159.057L127.642 159.057L115.295 211.054L115.247 211.256L115.07 211.365C113.237 212.495 111.831 214.183 111.062 216.169C114.733 218.671 118.576 220.919 122.562 222.897L122.563 222.897C124.432 223.828 126.338 224.697 128.279 225.503C129.191 224.292 129.806 222.888 130.077 221.401C130.37 219.792 130.249 218.136 129.726 216.585C129.555 216.08 129.34 215.59 129.086 215.121L128.992 214.948L129.041 214.758L131.138 206.628L131.139 206.621L131.145 206.596L141.977 164.56L141.977 164.56L143.294 159.456L143.294 159.454L143.383 159.103L143.384 159.101Z" fill="#FFAC71" stroke="#222132"/>
<path d="M153.728 58.654C145.047 65.0142 143.227 77.125 149.662 85.7042C152.947 90.0823 156.65 93.8099 160.588 95.6486C162.549 96.5642 164.558 97.0065 166.602 96.8378C168.644 96.6691 170.754 95.8876 172.915 94.304C177.259 91.1222 180.929 85.3445 182.691 79.2564C184.456 73.1578 184.267 66.8928 181.1 62.6718C174.664 54.0927 162.41 52.2938 153.728 58.654Z" fill="#FFAC71" stroke="#222132"/>
<path d="M146.829 181.644L146.839 181.716L146.838 181.718C146.88 182 146.916 182.274 146.948 182.542C147.049 183.361 147.42 184.126 148.004 184.719C148.589 185.312 149.356 185.7 150.186 185.822C150.461 185.862 150.74 185.873 151.017 185.855L187.094 183.442C187.913 183.386 188.692 183.072 189.317 182.549C189.941 182.025 190.379 181.319 190.567 180.533C190.567 180.532 190.567 180.532 190.567 180.532L190.596 180.41C192.338 171.744 193.325 162.947 193.546 154.115C193.601 151.654 193.59 149.119 193.496 146.537L193.496 146.536C193.345 142.19 192.922 137.858 192.23 133.564C192.183 133.291 192.138 133.026 192.086 132.764L192.085 132.761C191.278 128.553 189.485 124.591 186.851 121.19C182.379 115.457 175.843 111.646 168.6 110.55C167.876 110.444 167.152 110.366 166.42 110.318L166.419 110.318C161.798 110.004 157.17 110.814 152.94 112.677C148.71 114.54 145.008 117.4 142.157 121.004C141.434 121.919 140.77 122.877 140.17 123.874C137.222 128.774 135.867 134.448 136.286 140.132L136.286 140.133C136.441 142.285 136.852 144.412 137.51 146.47L137.51 146.47C138.88 150.759 140.107 154.739 141.191 158.409L141.192 158.413C141.255 158.634 141.32 158.853 141.384 159.073C141.417 159.186 141.449 159.298 141.482 159.411C142.006 161.203 142.493 162.915 142.944 164.549C144.938 171.765 146.24 177.483 146.829 181.644Z" fill="#F95C19" stroke="#222132"/>
<path d="M144.793 190.709C142.524 192.958 137.768 198.128 132.108 206.898L132.107 206.904L132.05 206.994C128.721 212.19 125.701 217.573 123.005 223.115C124.845 224.02 126.72 224.864 128.63 225.648C140.976 230.715 150.247 233.788 160.605 235.238C170.871 236.675 182.232 236.521 198.743 235.102C198.528 225.87 197.934 215.175 196.688 205.382C195.419 195.404 193.479 186.427 190.609 180.877L190.609 180.877L190.603 180.865C190.553 180.762 190.501 180.663 190.445 180.556C190.429 180.527 190.413 180.496 190.397 180.465C190.14 180.329 183.755 176.999 175.202 175.531C166.543 174.046 155.744 174.48 146.803 181.966C146.787 181.98 146.772 181.993 146.758 182.005L146.672 182.084C146.209 182.514 145.862 183.052 145.662 183.647L145.188 183.489L145.662 183.647C145.462 184.242 145.415 184.878 145.527 185.495L145.527 185.496L145.857 187.347C145.857 187.347 145.857 187.347 145.857 187.347C145.964 187.95 145.924 188.57 145.739 189.155C145.554 189.74 145.23 190.273 144.794 190.707L144.793 190.709Z" fill="#2F2E41" stroke="#222132"/>
<path d="M184.507 148.481L202.185 157.996C203.555 158.733 205.131 159.012 206.676 158.789C208.221 158.566 209.651 157.854 210.751 156.761L249.085 118.645L249.282 118.45L249.553 118.513C251.453 118.961 253.447 118.827 255.268 118.127C257.089 117.428 258.651 116.198 259.746 114.601C260.304 113.788 260.592 113.197 260.748 112.586C260.907 111.965 260.938 111.289 260.929 110.277C260.92 109.271 260.873 108.025 260.685 106.833C260.496 105.629 260.172 104.541 259.649 103.807C259.413 103.475 259.34 103.033 259.329 102.602C259.318 102.154 259.373 101.635 259.468 101.081C259.658 99.9732 260.018 98.6546 260.397 97.3691C260.544 96.8671 260.694 96.3721 260.839 95.8941C261.07 95.1337 261.287 94.4162 261.462 93.7817C261.604 93.2676 261.713 92.8259 261.775 92.4773C261.806 92.303 261.824 92.1611 261.83 92.0506C261.833 91.9959 261.832 91.9533 261.83 91.9214C261.829 91.9057 261.828 91.894 261.827 91.8856C261.825 91.8775 261.824 91.8739 261.824 91.874L261.817 91.8477L261.813 91.8207C261.729 91.297 261.574 90.9459 261.379 90.7272C261.198 90.5231 260.95 90.3954 260.575 90.3782C260.183 90.3601 259.653 90.4649 258.956 90.755C258.263 91.0432 257.435 91.502 256.455 92.1579L256.441 92.1676L256.426 92.1762C255.988 92.4272 255.113 93.1229 253.99 94.0925C252.881 95.0489 251.569 96.2382 250.274 97.4428C247.673 99.8599 245.172 102.308 244.519 103.053C243.24 104.51 242.441 106.317 242.226 108.232C242.174 108.73 242.162 109.23 242.19 109.729L242.204 109.997L241.989 110.157L203.758 138.508L203.529 138.678L203.266 138.567L192.981 134.248L184.507 148.481Z" fill="#FFAC71" stroke="#222132"/>
<path d="M201.985 138.234L201.984 138.235L193.652 146.155L193.652 146.156L189.681 149.936L189.68 149.936L186.198 153.245L186.198 153.245C185.802 153.622 185.327 153.911 184.806 154.091C184.286 154.271 183.732 154.339 183.182 154.288C182.632 154.238 182.1 154.071 181.622 153.799C181.143 153.527 180.73 153.157 180.411 152.713L171.441 140.274L171.441 140.274L167.739 135.138L167.719 135.109L167.694 135.083C165.587 132.896 164.445 129.973 164.516 126.956C164.587 123.939 165.866 121.073 168.073 118.986C170.281 116.898 173.237 115.76 176.295 115.822C179.353 115.885 182.26 117.143 184.379 119.32L184.405 119.346L184.434 119.369L186.942 121.28L186.942 121.28L201.665 132.513L201.985 138.234ZM201.985 138.234C202.325 137.911 202.602 137.53 202.801 137.108M201.985 138.234L202.801 137.108M202.801 137.108L202.832 137.039C203.177 136.265 203.249 135.399 203.038 134.58C202.827 133.76 202.345 133.032 201.666 132.513L202.801 137.108Z" fill="#F95C19" stroke="#222132"/>
<path d="M156.127 136.052L152.281 157.088L152.257 157.221C152.147 157.828 151.905 158.403 151.549 158.909C151.193 159.415 150.73 159.839 150.193 160.152C149.656 160.465 149.057 160.66 148.437 160.724C147.817 160.787 147.19 160.718 146.6 160.52L143.778 159.577L143.058 159.335L143.054 159.335L140.711 158.552L128.238 154.383L125.85 153.586C125.26 153.388 124.72 153.067 124.267 152.644C123.813 152.222 123.457 151.708 123.223 151.137C122.989 150.567 122.881 149.953 122.908 149.338C122.935 148.723 123.096 148.121 123.379 147.572L133.332 128.361C134.371 125.382 136.562 122.931 139.426 121.546C142.29 120.162 145.593 119.956 148.61 120.974C151.628 121.992 154.113 124.151 155.522 126.977C156.931 129.804 157.149 133.067 156.127 136.052Z" fill="#F95C19"/>
<path d="M165.093 76.5155C170.499 81.4694 174.606 85.3544 181.404 81.9219C185.868 79.6681 185.642 72.4256 184.701 67.56C181.654 58.4861 177.903 55.0246 171.352 50.8087C161.199 46.6558 157.185 45.4751 147.247 47.8621C137.427 51.45 134.291 56.7998 130.969 70.5124C127.424 80.1572 127.044 80.6931 123.334 89.019C120.915 97.3419 110.581 100.393 101.823 100.658C93.0643 100.924 83.4455 100.01 76.405 105.165C67.4237 111.742 67.3013 125.835 73.4341 135.07C79.5669 144.306 90.1158 149.632 100.498 153.725C114.255 159.147 129.411 163.161 143.782 159.622C158.153 156.084 170.926 142.755 169.1 128.231C168.329 122.096 165.175 116.543 162.131 111.142C159.088 105.741 156.03 100.111 155.485 93.9521C155.031 88.8198 156.784 83.1956 160.668 79.966C161.371 79.4041 165.094 87.7673 165.328 86.9043C165.561 86.0413 167.419 78.4879 165.143 76.5611L165.093 76.5155Z" fill="#222132"/>
<defs>
<linearGradient id="paint0_linear_301_509" x1="139.459" y1="235.495" x2="164.845" y2="17.3201" gradientUnits="userSpaceOnUse">
<stop stop-color="#FFF7E7"/>
<stop offset="1" stop-color="#FFF1DC"/>
</linearGradient>
</defs>
</svg>
