<svg width="22" height="18" viewBox="0 0 22 18" fill="none" xmlns="http://www.w3.org/2000/svg">
<path d="M19.8 17.6H2.2C1.61652 17.6 1.05694 17.3682 0.644365 16.9556C0.231785 16.5431 0 15.9835 0 15.4V2.1043C0.0246759 1.53757 0.26731 1.00227 0.677246 0.610171C1.08718 0.218067 1.63273 -0.000535963 2.2 9.86832e-07H19.8C20.3835 9.86832e-07 20.9431 0.231786 21.3556 0.644366C21.7682 1.05695 22 1.61652 22 2.2V15.4C22 15.9835 21.7682 16.5431 21.3556 16.9556C20.9431 17.3682 20.3835 17.6 19.8 17.6ZM2.2 4.2548V15.4H19.8V4.2548L11 10.12L2.2 4.2548ZM3.08 2.2L11 7.48L18.92 2.2H3.08Z" fill="#FFAF0F"/>
</svg>
