<svg width="145" height="37" viewBox="0 0 145 37" fill="none" xmlns="http://www.w3.org/2000/svg">
<path d="M40.5 27.74V20.46C40.5 18.2867 41.5867 17.2 43.76 17.2H48.34C50.5133 17.2 51.6 18.2867 51.6 20.46V27.76C51.6 29.6 50.8067 30.64 49.22 30.88L50.54 33.48L50.24 34H48.14L46.62 31H43.76C41.5867 31 40.5 29.9133 40.5 27.74ZM42.94 27.92C42.94 28.4933 43.2333 28.78 43.82 28.78H48.28C48.8667 28.78 49.16 28.4933 49.16 27.92V20.28C49.16 19.7067 48.8667 19.42 48.28 19.42H43.82C43.2333 19.42 42.94 19.7067 42.94 20.28V27.92ZM54.5216 27.84V20.5H56.8616V28.04C56.8616 28.6533 57.1682 28.96 57.7816 28.96H61.0816V20.5H63.4216V31H57.6816C55.5749 31 54.5216 29.9467 54.5216 27.84ZM66.338 31V21.8C66.818 20.9333 67.738 20.5 69.098 20.5H71.198L72.258 21.28V22.54H69.638C69.1846 22.54 68.8646 22.6533 68.678 22.88V31H66.338ZM74.2095 18.68V16.3H76.6695V18.68H74.2095ZM74.2695 31V20.5H76.6095V31H74.2695ZM82.2016 31C80.0949 31 79.0416 29.96 79.0416 27.88C79.0416 25.8 80.0949 24.76 82.2016 24.76H85.2816V23.46C85.2816 22.8467 84.9749 22.54 84.3616 22.54H80.1216V21.28L81.1616 20.5H84.4816C86.5749 20.5 87.6216 21.5533 87.6216 23.66V31H82.2016ZM81.3816 28.04C81.3816 28.6533 81.6882 28.96 82.3016 28.96H85.2816V26.58H82.3016C81.6882 26.58 81.3816 26.88 81.3816 27.48V28.04ZM90.4591 31V21.8C90.9391 20.9333 91.8591 20.5 93.2191 20.5H95.3191L96.3791 21.28V22.54H93.7591C93.3057 22.54 92.9857 22.6533 92.7991 22.88V31H90.4591ZM98.3906 31V16.2H100.731V20.5H104.151C106.244 20.5 107.291 21.5533 107.291 23.66V27.84C107.291 29.9467 106.244 31 104.151 31H98.3906ZM100.731 28.96H104.031C104.644 28.96 104.951 28.6533 104.951 28.04V23.46C104.951 22.8467 104.644 22.54 104.031 22.54H100.731V28.96ZM109.969 27.84V23.66C109.969 21.5533 111.022 20.5 113.129 20.5H115.929C118.022 20.5 119.069 21.5533 119.069 23.66V27.84C119.069 29.9467 118.022 31 115.929 31H113.129C111.022 31 109.969 29.9467 109.969 27.84ZM112.309 28.04C112.309 28.6533 112.616 28.96 113.229 28.96H115.809C116.422 28.96 116.729 28.6533 116.729 28.04V23.46C116.729 22.8467 116.422 22.54 115.809 22.54H113.229C112.616 22.54 112.309 22.8467 112.309 23.46V28.04ZM120.986 30.6L124.506 25.68L121.086 20.9L121.286 20.5H123.446L125.826 23.94L128.226 20.5H130.386L130.586 20.9L127.166 25.68L130.686 30.6L130.506 31H128.326L125.826 27.42L123.326 31H121.166L120.986 30.6Z" fill="#F95C19"/>
<path d="M18.5772 36.0748L31.7843 26.9561C32.5883 26.4 33.0372 25.5018 33.0502 24.5846L33.1986 15.6175C33.2197 14.341 32.4417 13.1924 31.2565 12.7505L22.9304 9.64593C22.0795 9.32635 21.0885 9.42425 20.2846 9.9804L7.09391 19.1233L18.6431 23.5815L18.5772 36.0748Z" fill="#F95C19"/>
<path d="M20.5266 9.74239L7.24176 18.9147C6.4331 19.4741 5.98158 20.3776 5.96846 21.3002L5.81896 30.3326C5.79783 31.6091 6.5759 32.7576 7.76111 33.1996L16.1478 36.3267C17.0037 36.6482 18.0005 36.5497 18.8092 35.9903L32.0774 26.7936L22.382 23.051C21.2251 22.6044 20.4647 21.4818 20.4713 20.2304L20.5266 9.74239Z" fill="#CA3E02"/>
</svg>
